<mxfile host="app.diagrams.net" modified="2022-05-10T12:49:42.227Z" agent="5.0 (Windows NT 10.0; Win64; x64) AppleWebKit/537.36 (KHTML, like Gecko) Chrome/101.0.4951.54 Safari/537.36" etag="Nmzd9BWJHTsNOhcc9hod" version="18.0.2" type="github">
  <diagram id="wwKvsSeiZdQgtGcbpDNy" name="第 1 页">
    <mxGraphModel dx="1422" dy="698" grid="1" gridSize="10" guides="1" tooltips="1" connect="1" arrows="1" fold="1" page="1" pageScale="1" pageWidth="827" pageHeight="1169" math="0" shadow="0">
      <root>
        <mxCell id="0" />
        <mxCell id="1" parent="0" />
        <mxCell id="ZdLB4hxc-VMSMGiIu3Mt-4" style="rounded=0;orthogonalLoop=1;jettySize=auto;html=1;exitX=0;exitY=0.75;exitDx=0;exitDy=0;endArrow=none;endFill=0;" parent="1" source="ZdLB4hxc-VMSMGiIu3Mt-1" target="ZdLB4hxc-VMSMGiIu3Mt-2" edge="1">
          <mxGeometry relative="1" as="geometry" />
        </mxCell>
        <mxCell id="ZdLB4hxc-VMSMGiIu3Mt-5" style="edgeStyle=none;rounded=0;orthogonalLoop=1;jettySize=auto;html=1;exitX=1;exitY=0.75;exitDx=0;exitDy=0;entryX=0.02;entryY=0.25;entryDx=0;entryDy=0;entryPerimeter=0;endArrow=none;endFill=0;" parent="1" source="ZdLB4hxc-VMSMGiIu3Mt-1" target="ZdLB4hxc-VMSMGiIu3Mt-3" edge="1">
          <mxGeometry relative="1" as="geometry" />
        </mxCell>
        <mxCell id="D_WmG7T2IZ3jSSJ3vhzG-2" style="edgeStyle=orthogonalEdgeStyle;rounded=0;orthogonalLoop=1;jettySize=auto;html=1;exitX=0.5;exitY=1;exitDx=0;exitDy=0;entryX=0.5;entryY=0;entryDx=0;entryDy=0;endArrow=none;endFill=0;" edge="1" parent="1" source="ZdLB4hxc-VMSMGiIu3Mt-1" target="D_WmG7T2IZ3jSSJ3vhzG-1">
          <mxGeometry relative="1" as="geometry" />
        </mxCell>
        <mxCell id="ZdLB4hxc-VMSMGiIu3Mt-1" value="课件分页" style="rounded=1;whiteSpace=wrap;html=1;" parent="1" vertex="1">
          <mxGeometry x="160" y="90" width="90" height="40" as="geometry" />
        </mxCell>
        <mxCell id="ZdLB4hxc-VMSMGiIu3Mt-2" value="页码" style="ellipse;whiteSpace=wrap;html=1;" parent="1" vertex="1">
          <mxGeometry x="70" y="110" width="50" height="70" as="geometry" />
        </mxCell>
        <mxCell id="ZdLB4hxc-VMSMGiIu3Mt-3" value="课件id" style="ellipse;whiteSpace=wrap;html=1;" parent="1" vertex="1">
          <mxGeometry x="290" y="110" width="50" height="70" as="geometry" />
        </mxCell>
        <mxCell id="D_WmG7T2IZ3jSSJ3vhzG-1" value="图片路径" style="ellipse;whiteSpace=wrap;html=1;" vertex="1" parent="1">
          <mxGeometry x="180" y="160" width="50" height="70" as="geometry" />
        </mxCell>
      </root>
    </mxGraphModel>
  </diagram>
</mxfile>
